<mxfile host="app.diagrams.net" modified="2023-02-07T14:41:17.984Z" agent="5.0 (Windows NT 10.0; Win64; x64) AppleWebKit/537.36 (KHTML, like Gecko) Chrome/109.0.0.0 Safari/537.36 Edg/109.0.1518.78" etag="H3BkYigtLe4XQyzKXj3x" version="20.8.17" type="github">
  <diagram name="第 1 页" id="HdBfJu3gv2H41369o31b">
    <mxGraphModel dx="1034" dy="544" grid="1" gridSize="10" guides="1" tooltips="1" connect="1" arrows="1" fold="1" page="1" pageScale="1" pageWidth="827" pageHeight="1169" math="0" shadow="0">
      <root>
        <mxCell id="0" />
        <mxCell id="1" parent="0" />
        <mxCell id="r_yy0beViFJU-7GPWFF6-20" style="edgeStyle=orthogonalEdgeStyle;rounded=0;orthogonalLoop=1;jettySize=auto;html=1;entryX=0.809;entryY=0.006;entryDx=0;entryDy=0;entryPerimeter=0;strokeWidth=3;fontFamily=Times New Roman;fontSize=36;endArrow=block;endFill=1;exitX=0.805;exitY=1;exitDx=0;exitDy=0;exitPerimeter=0;" edge="1" parent="1" source="r_yy0beViFJU-7GPWFF6-5" target="r_yy0beViFJU-7GPWFF6-13">
          <mxGeometry relative="1" as="geometry" />
        </mxCell>
        <mxCell id="r_yy0beViFJU-7GPWFF6-5" value="" style="rounded=0;whiteSpace=wrap;html=1;flipV=1;flipH=1;rotation=90;fontFamily=Times New Roman;" vertex="1" parent="1">
          <mxGeometry x="297.5" y="362.5" width="205" height="60" as="geometry" />
        </mxCell>
        <mxCell id="r_yy0beViFJU-7GPWFF6-23" style="edgeStyle=orthogonalEdgeStyle;rounded=0;orthogonalLoop=1;jettySize=auto;html=1;entryX=0.174;entryY=-0.006;entryDx=0;entryDy=0;entryPerimeter=0;strokeWidth=3;fontFamily=Times New Roman;fontSize=36;endArrow=block;endFill=1;exitX=0.175;exitY=0.992;exitDx=0;exitDy=0;exitPerimeter=0;" edge="1" parent="1" source="r_yy0beViFJU-7GPWFF6-5" target="r_yy0beViFJU-7GPWFF6-13">
          <mxGeometry relative="1" as="geometry" />
        </mxCell>
        <mxCell id="r_yy0beViFJU-7GPWFF6-6" value="&lt;font&gt;FI&lt;/font&gt;" style="text;html=1;align=center;verticalAlign=middle;resizable=0;points=[];autosize=1;strokeColor=none;fillColor=none;fontSize=36;fontFamily=Times New Roman;" vertex="1" parent="1">
          <mxGeometry x="370" y="362.5" width="60" height="60" as="geometry" />
        </mxCell>
        <mxCell id="r_yy0beViFJU-7GPWFF6-18" style="edgeStyle=orthogonalEdgeStyle;rounded=0;orthogonalLoop=1;jettySize=auto;html=1;strokeWidth=3;fontFamily=Times New Roman;fontSize=36;endArrow=block;endFill=1;exitX=0.815;exitY=0.991;exitDx=0;exitDy=0;exitPerimeter=0;" edge="1" parent="1" source="r_yy0beViFJU-7GPWFF6-9">
          <mxGeometry relative="1" as="geometry">
            <mxPoint x="370" y="328" as="targetPoint" />
          </mxGeometry>
        </mxCell>
        <mxCell id="r_yy0beViFJU-7GPWFF6-9" value="" style="rounded=0;whiteSpace=wrap;html=1;flipV=1;flipH=1;rotation=90;fontFamily=Times New Roman;" vertex="1" parent="1">
          <mxGeometry x="190" y="362.5" width="205" height="60" as="geometry" />
        </mxCell>
        <mxCell id="r_yy0beViFJU-7GPWFF6-22" style="edgeStyle=orthogonalEdgeStyle;rounded=0;orthogonalLoop=1;jettySize=auto;html=1;entryX=0.171;entryY=0;entryDx=0;entryDy=0;entryPerimeter=0;strokeWidth=3;fontFamily=Times New Roman;fontSize=36;endArrow=block;endFill=1;exitX=0.171;exitY=0.998;exitDx=0;exitDy=0;exitPerimeter=0;" edge="1" parent="1" source="r_yy0beViFJU-7GPWFF6-9" target="r_yy0beViFJU-7GPWFF6-5">
          <mxGeometry relative="1" as="geometry" />
        </mxCell>
        <mxCell id="r_yy0beViFJU-7GPWFF6-10" value="&lt;font&gt;FI&lt;/font&gt;" style="text;html=1;align=center;verticalAlign=middle;resizable=0;points=[];autosize=1;strokeColor=none;fillColor=none;fontSize=36;fontFamily=Times New Roman;" vertex="1" parent="1">
          <mxGeometry x="262.5" y="362.5" width="60" height="60" as="geometry" />
        </mxCell>
        <mxCell id="r_yy0beViFJU-7GPWFF6-31" style="edgeStyle=orthogonalEdgeStyle;rounded=0;orthogonalLoop=1;jettySize=auto;html=1;entryX=0.5;entryY=0;entryDx=0;entryDy=0;strokeWidth=3;fontFamily=Times New Roman;fontSize=24;endArrow=block;endFill=1;exitX=0.806;exitY=0.987;exitDx=0;exitDy=0;exitPerimeter=0;" edge="1" parent="1">
          <mxGeometry relative="1" as="geometry">
            <mxPoint x="604.9999999999998" y="326.9800000000001" as="sourcePoint" />
            <mxPoint x="694.78" y="373.21000000000004" as="targetPoint" />
            <Array as="points">
              <mxPoint x="641.78" y="327.21" />
              <mxPoint x="694.78" y="327.21" />
            </Array>
          </mxGeometry>
        </mxCell>
        <mxCell id="r_yy0beViFJU-7GPWFF6-11" value="" style="rounded=0;whiteSpace=wrap;html=1;flipV=1;flipH=1;rotation=90;fontFamily=Times New Roman;" vertex="1" parent="1">
          <mxGeometry x="507.5" y="362.5" width="205" height="60" as="geometry" />
        </mxCell>
        <mxCell id="r_yy0beViFJU-7GPWFF6-32" style="edgeStyle=orthogonalEdgeStyle;rounded=0;orthogonalLoop=1;jettySize=auto;html=1;entryX=0.566;entryY=1.013;entryDx=0;entryDy=0;strokeWidth=3;fontFamily=Times New Roman;fontSize=24;endArrow=block;endFill=1;exitX=0.175;exitY=1;exitDx=0;exitDy=0;exitPerimeter=0;entryPerimeter=0;" edge="1" parent="1" source="r_yy0beViFJU-7GPWFF6-11" target="r_yy0beViFJU-7GPWFF6-36">
          <mxGeometry relative="1" as="geometry">
            <mxPoint x="608.3600000000001" y="457.97499999999997" as="sourcePoint" />
            <mxPoint x="694.78" y="406.21000000000015" as="targetPoint" />
          </mxGeometry>
        </mxCell>
        <mxCell id="r_yy0beViFJU-7GPWFF6-12" value="&lt;font&gt;FI&lt;/font&gt;" style="text;html=1;align=center;verticalAlign=middle;resizable=0;points=[];autosize=1;strokeColor=none;fillColor=none;fontSize=36;fontFamily=Times New Roman;" vertex="1" parent="1">
          <mxGeometry x="580" y="362.5" width="60" height="60" as="geometry" />
        </mxCell>
        <mxCell id="r_yy0beViFJU-7GPWFF6-21" style="edgeStyle=orthogonalEdgeStyle;rounded=0;orthogonalLoop=1;jettySize=auto;html=1;entryX=0.805;entryY=0;entryDx=0;entryDy=0;entryPerimeter=0;strokeWidth=3;fontFamily=Times New Roman;fontSize=36;endArrow=block;endFill=1;exitX=0.807;exitY=0.998;exitDx=0;exitDy=0;exitPerimeter=0;" edge="1" parent="1" source="r_yy0beViFJU-7GPWFF6-13" target="r_yy0beViFJU-7GPWFF6-11">
          <mxGeometry relative="1" as="geometry" />
        </mxCell>
        <mxCell id="r_yy0beViFJU-7GPWFF6-13" value="" style="rounded=0;whiteSpace=wrap;html=1;flipV=1;flipH=1;rotation=90;fontFamily=Times New Roman;" vertex="1" parent="1">
          <mxGeometry x="400" y="362.5" width="205" height="60" as="geometry" />
        </mxCell>
        <mxCell id="r_yy0beViFJU-7GPWFF6-24" style="edgeStyle=orthogonalEdgeStyle;rounded=0;orthogonalLoop=1;jettySize=auto;html=1;entryX=0.171;entryY=0;entryDx=0;entryDy=0;entryPerimeter=0;strokeWidth=3;fontFamily=Times New Roman;fontSize=36;endArrow=block;endFill=1;exitX=0.172;exitY=1.004;exitDx=0;exitDy=0;exitPerimeter=0;" edge="1" parent="1" source="r_yy0beViFJU-7GPWFF6-13" target="r_yy0beViFJU-7GPWFF6-11">
          <mxGeometry relative="1" as="geometry" />
        </mxCell>
        <mxCell id="r_yy0beViFJU-7GPWFF6-14" value="&lt;font&gt;FI&lt;/font&gt;" style="text;html=1;align=center;verticalAlign=middle;resizable=0;points=[];autosize=1;strokeColor=none;fillColor=none;fontSize=36;fontFamily=Times New Roman;" vertex="1" parent="1">
          <mxGeometry x="472.5" y="362.5" width="60" height="60" as="geometry" />
        </mxCell>
        <mxCell id="r_yy0beViFJU-7GPWFF6-16" value="" style="endArrow=block;html=1;rounded=0;fontFamily=Times New Roman;fontSize=36;endFill=1;strokeWidth=3;" edge="1" parent="1">
          <mxGeometry width="50" height="50" relative="1" as="geometry">
            <mxPoint x="160" y="330" as="sourcePoint" />
            <mxPoint x="262.5" y="330" as="targetPoint" />
          </mxGeometry>
        </mxCell>
        <mxCell id="r_yy0beViFJU-7GPWFF6-17" value="" style="endArrow=block;html=1;rounded=0;fontFamily=Times New Roman;fontSize=36;endFill=1;strokeWidth=3;" edge="1" parent="1">
          <mxGeometry width="50" height="50" relative="1" as="geometry">
            <mxPoint x="160" y="460" as="sourcePoint" />
            <mxPoint x="262.5" y="460" as="targetPoint" />
          </mxGeometry>
        </mxCell>
        <mxCell id="r_yy0beViFJU-7GPWFF6-33" style="edgeStyle=orthogonalEdgeStyle;rounded=0;orthogonalLoop=1;jettySize=auto;html=1;strokeWidth=3;fontFamily=Times New Roman;fontSize=24;endArrow=block;endFill=1;" edge="1" parent="1">
          <mxGeometry relative="1" as="geometry">
            <mxPoint x="765.78" y="389.71" as="targetPoint" />
            <mxPoint x="711.28" y="389.71000000000004" as="sourcePoint" />
          </mxGeometry>
        </mxCell>
        <mxCell id="r_yy0beViFJU-7GPWFF6-49" value="" style="group;fontFamily=Times New Roman;" vertex="1" connectable="0" parent="1">
          <mxGeometry x="672.5" y="372.4975" width="40.0025" height="40.00249999999994" as="geometry" />
        </mxCell>
        <mxCell id="r_yy0beViFJU-7GPWFF6-35" value="" style="ellipse;whiteSpace=wrap;html=1;aspect=fixed;fontFamily=Times New Roman;fontSize=36;" vertex="1" parent="r_yy0beViFJU-7GPWFF6-49">
          <mxGeometry x="0.0024999999999977263" width="40" height="40" as="geometry" />
        </mxCell>
        <mxCell id="r_yy0beViFJU-7GPWFF6-36" value="&lt;b style=&quot;font-size: 26px;&quot;&gt;C&lt;/b&gt;" style="text;html=1;align=center;verticalAlign=middle;resizable=0;points=[];autosize=1;strokeColor=none;fillColor=none;fontSize=26;fontFamily=Times New Roman;" vertex="1" parent="r_yy0beViFJU-7GPWFF6-49">
          <mxGeometry y="0.002499999999940883" width="40" height="40" as="geometry" />
        </mxCell>
        <mxCell id="r_yy0beViFJU-7GPWFF6-50" value="" style="group;fontFamily=Times New Roman;" vertex="1" connectable="0" parent="1">
          <mxGeometry x="633.75" y="544" width="40.0025" height="40.00249999999994" as="geometry" />
        </mxCell>
        <mxCell id="r_yy0beViFJU-7GPWFF6-51" value="" style="ellipse;whiteSpace=wrap;html=1;aspect=fixed;fontFamily=Times New Roman;fontSize=36;" vertex="1" parent="r_yy0beViFJU-7GPWFF6-50">
          <mxGeometry x="0.0024999999999977263" width="40" height="40" as="geometry" />
        </mxCell>
        <mxCell id="r_yy0beViFJU-7GPWFF6-52" value="&lt;b style=&quot;font-size: 26px;&quot;&gt;C&lt;/b&gt;" style="text;html=1;align=center;verticalAlign=middle;resizable=0;points=[];autosize=1;strokeColor=none;fillColor=none;fontSize=26;fontFamily=Times New Roman;" vertex="1" parent="r_yy0beViFJU-7GPWFF6-50">
          <mxGeometry y="0.002499999999940883" width="40" height="40" as="geometry" />
        </mxCell>
        <mxCell id="r_yy0beViFJU-7GPWFF6-53" value="&lt;font face=&quot;宋体&quot;&gt;连接&lt;/font&gt;" style="text;html=1;align=center;verticalAlign=middle;resizable=0;points=[];autosize=1;strokeColor=none;fillColor=none;fontSize=26;fontFamily=Times New Roman;" vertex="1" parent="1">
          <mxGeometry x="671.25" y="544" width="80" height="40" as="geometry" />
        </mxCell>
      </root>
    </mxGraphModel>
  </diagram>
</mxfile>
